<?xml version="1.0" encoding="UTF-8" standalone="no"?>
<!-- Created with Inkscape (http://www.inkscape.org/) -->

<svg
   xmlns:dc="http://purl.org/dc/elements/1.1/"
   xmlns:cc="http://creativecommons.org/ns#"
   xmlns:rdf="http://www.w3.org/1999/02/22-rdf-syntax-ns#"
   xmlns:svg="http://www.w3.org/2000/svg"
   xmlns="http://www.w3.org/2000/svg"
   xmlns:xlink="http://www.w3.org/1999/xlink"
   xmlns:sodipodi="http://sodipodi.sourceforge.net/DTD/sodipodi-0.dtd"
   xmlns:inkscape="http://www.inkscape.org/namespaces/inkscape"
   width="54.858776mm"
   height="14.378473mm"
   viewBox="0 0 194.38149 50.947346"
   id="svg4741"
   version="1.1"
   inkscape:version="0.91 r13725"
   sodipodi:docname="exotice.svg">
  <defs
     id="defs4743">
    <filter
       style="color-interpolation-filters:sRGB"
       inkscape:label="Brilliance"
       id="filter7448-2">
      <feColorMatrix
         values="1.2 -0.2 -0.2 0 0 -0.2 1.2 -0.2 0 0 -0.2 -0.2 1.2 0 0 0 0 0 1 0 "
         id="feColorMatrix7450-8" />
    </filter>
    <linearGradient
       inkscape:collect="always"
       xlink:href="#linearGradient1021"
       id="linearGradient4823"
       gradientUnits="userSpaceOnUse"
       gradientTransform="matrix(1.0134437,0,0,0.49938422,147.80655,173.50378)"
       x1="30.524302"
       y1="149.91046"
       x2="32.302612"
       y2="115.68985" />
    <linearGradient
       id="linearGradient1021">
      <stop
         style="stop-color:#ff933d;stop-opacity:1;"
         offset="0"
         id="stop4292" />
      <stop
         style="stop-color:#ffe6ba;stop-opacity:1;"
         offset="1"
         id="stop4294" />
    </linearGradient>
    <linearGradient
       inkscape:collect="always"
       xlink:href="#linearGradient1009"
       id="linearGradient4825"
       gradientUnits="userSpaceOnUse"
       gradientTransform="matrix(0.56282925,0,0,0.89920311,147.80655,173.50378)"
       x1="29.631493"
       y1="46.312645"
       x2="14.265077"
       y2="25.271564" />
    <linearGradient
       id="linearGradient1009">
      <stop
         id="stop1010"
         offset="0"
         style="stop-color:#000000;stop-opacity:1;" />
      <stop
         id="stop1011"
         offset="1"
         style="stop-color:#2aaf18;stop-opacity:1;" />
    </linearGradient>
    <linearGradient
       inkscape:collect="always"
       xlink:href="#linearGradient1009"
       id="linearGradient4827"
       gradientUnits="userSpaceOnUse"
       gradientTransform="matrix(0.86043559,0,0,0.58818798,147.80655,173.50378)"
       x1="11.412969"
       y1="49.732651"
       x2="7.3225999"
       y2="29.153502" />
    <linearGradient
       inkscape:collect="always"
       xlink:href="#linearGradient1009"
       id="linearGradient4829"
       gradientUnits="userSpaceOnUse"
       gradientTransform="matrix(0.86043617,0,0,0.58818798,147.80655,173.50378)"
       x1="35.033291"
       y1="51.730701"
       x2="46.258026"
       y2="34.721809" />
    <linearGradient
       inkscape:collect="always"
       xlink:href="#linearGradient1009"
       id="linearGradient4831"
       gradientUnits="userSpaceOnUse"
       gradientTransform="matrix(0.73609752,0,0,0.68754163,147.80655,173.50378)"
       x1="42.286877"
       y1="39.185604"
       x2="40.696377"
       y2="14.898046" />
    <linearGradient
       inkscape:collect="always"
       xlink:href="#linearGradient1009"
       id="linearGradient4834"
       gradientUnits="userSpaceOnUse"
       gradientTransform="matrix(0.58878549,0,0,0.85956237,147.80655,173.50378)"
       x1="53.290607"
       y1="28.021749"
       x2="40.87318"
       y2="3.259958" />
    <linearGradient
       inkscape:collect="always"
       xlink:href="#linearGradient1009"
       id="linearGradient4836"
       gradientUnits="userSpaceOnUse"
       gradientTransform="matrix(0.58878549,0,0,0.85956237,147.80655,173.50378)"
       x1="20.608866"
       y1="29.549305"
       x2="24.74815"
       y2="9.9462204" />
    <linearGradient
       inkscape:collect="always"
       xlink:href="#linearGradient4298"
       id="linearGradient4838"
       gradientUnits="userSpaceOnUse"
       gradientTransform="translate(-213.57244,145.34306)"
       x1="70.044884"
       y1="101.76846"
       x2="52.494553"
       y2="72.029556" />
    <linearGradient
       id="linearGradient4298">
      <stop
         id="stop4300"
         offset="0"
         style="stop-color:#ff933d;stop-opacity:1;" />
      <stop
         id="stop4302"
         offset="1"
         style="stop-color:#000000;stop-opacity:1" />
    </linearGradient>
    <filter
       style="color-interpolation-filters:sRGB"
       inkscape:label="Brilliance"
       id="filter4652">
      <feColorMatrix
         values="1.2 -0.2 -0.2 0 0 -0.2 1.2 -0.2 0 0 -0.2 -0.2 1.2 0 0 0 0 0 1 0 "
         id="feColorMatrix4654" />
    </filter>
    <linearGradient
       inkscape:collect="always"
       xlink:href="#linearGradient4298"
       id="linearGradient4840"
       gradientUnits="userSpaceOnUse"
       gradientTransform="translate(-213.57244,145.34306)"
       x1="94.606918"
       y1="93.484558"
       x2="83.268051"
       y2="68.993706" />
    <filter
       style="color-interpolation-filters:sRGB"
       inkscape:label="Brilliance"
       id="filter4663">
      <feColorMatrix
         values="1.2 -0.2 -0.2 0 0 -0.2 1.2 -0.2 0 0 -0.2 -0.2 1.2 0 0 0 0 0 1 0 "
         id="feColorMatrix4665" />
    </filter>
    <linearGradient
       inkscape:collect="always"
       xlink:href="#linearGradient4298"
       id="linearGradient4842"
       gradientUnits="userSpaceOnUse"
       gradientTransform="translate(-213.57244,145.34306)"
       x1="115.49757"
       y1="90.188988"
       x2="107.10481"
       y2="59.283863" />
    <filter
       style="color-interpolation-filters:sRGB"
       inkscape:label="Brilliance"
       id="filter4674">
      <feColorMatrix
         values="1.2 -0.2 -0.2 0 0 -0.2 1.2 -0.2 0 0 -0.2 -0.2 1.2 0 0 0 0 0 1 0 "
         id="feColorMatrix4676" />
    </filter>
    <linearGradient
       inkscape:collect="always"
       xlink:href="#linearGradient4298"
       id="linearGradient4846"
       gradientUnits="userSpaceOnUse"
       x1="165.1946"
       y1="57.495678"
       x2="160.90416"
       y2="38.924252" />
    <filter
       style="color-interpolation-filters:sRGB"
       inkscape:label="Brilliance"
       id="filter4685">
      <feColorMatrix
         values="1.2 -0.2 -0.2 0 0 -0.2 1.2 -0.2 0 0 -0.2 -0.2 1.2 0 0 0 0 0 1 0 "
         id="feColorMatrix4687" />
    </filter>
    <linearGradient
       inkscape:collect="always"
       xlink:href="#linearGradient4298"
       id="linearGradient4848"
       gradientUnits="userSpaceOnUse"
       gradientTransform="translate(-217.86636,102.89224)"
       x1="193.91922"
       y1="127.1738"
       x2="204.34425"
       y2="96.268669" />
    <filter
       style="color-interpolation-filters:sRGB"
       inkscape:label="Brilliance"
       id="filter4703">
      <feColorMatrix
         values="1.2 -0.2 -0.2 0 0 -0.2 1.2 -0.2 0 0 -0.2 -0.2 1.2 0 0 0 0 0 1 0 "
         id="feColorMatrix4705" />
    </filter>
    <linearGradient
       inkscape:collect="always"
       xlink:href="#linearGradient4298"
       id="linearGradient4850"
       gradientUnits="userSpaceOnUse"
       gradientTransform="translate(-217.86636,102.89224)"
       x1="225.38785"
       y1="131.83873"
       x2="234.54005"
       y2="108.5141" />
    <filter
       style="color-interpolation-filters:sRGB"
       inkscape:label="Brilliance"
       id="filter4714">
      <feColorMatrix
         values="1.2 -0.2 -0.2 0 0 -0.2 1.2 -0.2 0 0 -0.2 -0.2 1.2 0 0 0 0 0 1 0 "
         id="feColorMatrix4716" />
    </filter>
    <linearGradient
       inkscape:collect="always"
       xlink:href="#linearGradient4298"
       id="linearGradient5445"
       gradientUnits="userSpaceOnUse"
       x1="165.1946"
       y1="57.495678"
       x2="160.90416"
       y2="38.924252" />
  </defs>
  <sodipodi:namedview
     id="base"
     pagecolor="#ffffff"
     bordercolor="#666666"
     borderopacity="1.0"
     inkscape:pageopacity="0.0"
     inkscape:pageshadow="2"
     inkscape:zoom="1.979899"
     inkscape:cx="-46.818403"
     inkscape:cy="-147.31554"
     inkscape:document-units="px"
     inkscape:current-layer="layer1"
     showgrid="false"
     fit-margin-top="0"
     fit-margin-left="0"
     fit-margin-right="0"
     fit-margin-bottom="0"
     inkscape:window-width="2560"
     inkscape:window-height="1422"
     inkscape:window-x="0"
     inkscape:window-y="0"
     inkscape:window-maximized="1" />
  <metadata
     id="metadata4746">
    <rdf:RDF>
      <cc:Work
         rdf:about="">
        <dc:format>image/svg+xml</dc:format>
        <dc:type
           rdf:resource="http://purl.org/dc/dcmitype/StillImage" />
        <dc:title></dc:title>
      </cc:Work>
    </rdf:RDF>
  </metadata>
  <g
     inkscape:label="Calque 1"
     inkscape:groupmode="layer"
     id="layer1"
     transform="translate(1197.1908,-195.45996)">
    <g
       style="font-style:normal;font-variant:normal;font-weight:normal;font-stretch:normal;font-size:40px;line-height:125%;font-family:Banana;-inkscape-font-specification:'Banana, Normal';text-align:start;letter-spacing:0px;word-spacing:0px;writing-mode:lr-tb;text-anchor:start;fill:#000000;fill-opacity:1;stroke:none;stroke-width:1px;stroke-linecap:butt;stroke-linejoin:miter;stroke-opacity:1"
       id="text3352"
       transform="matrix(0.93154827,0,0,0.61247334,-1038.0514,90.089712)">
      <g
         id="g4570">
        <g
           transform="translate(-219.14364,0.380509)"
           id="g5150-6-5-9"
           style="font-style:normal;font-variant:normal;font-weight:normal;font-stretch:normal;font-size:40px;line-height:125%;font-family:Banana;-inkscape-font-specification:'Banana, Normal';text-align:start;letter-spacing:0px;word-spacing:0px;writing-mode:lr-tb;text-anchor:start;fill:#000000;fill-opacity:1;stroke:none;stroke-width:1px;stroke-linecap:butt;stroke-linejoin:miter;stroke-opacity:1;filter:url(#filter7448-2)">
          <path
             inkscape:connector-curvature="0"
             style="font-style:normal;font-variant:normal;font-weight:normal;font-stretch:normal;font-size:12px;line-height:125%;font-family:Banana;-inkscape-font-specification:'Banana, Normal';text-align:start;letter-spacing:0px;word-spacing:0px;writing-mode:lr-tb;text-anchor:start;fill:url(#linearGradient4823);fill-opacity:1;fill-rule:evenodd;stroke:none;stroke-width:1;stroke-linecap:butt;stroke-linejoin:miter;stroke-opacity:1"
             d="m 195.7121,239.25249 c 0,4.78201 -7.86708,8.65859 -17.57163,8.65859 -9.70454,0 -17.57163,-3.87658 -17.57163,-8.65859 0,-4.78201 7.86709,-8.6586 17.57163,-8.6586 9.70455,0 17.57163,3.87659 17.57163,8.6586 z"
             id="path1024-3-9-4-5-9" />
          <path
             inkscape:connector-curvature="0"
             style="font-style:normal;font-variant:normal;font-weight:normal;font-stretch:normal;font-size:medium;line-height:125%;font-family:Banana;-inkscape-font-specification:'Banana, Normal';text-align:start;letter-spacing:0px;word-spacing:0px;writing-mode:lr-tb;text-anchor:start;fill:#955801;fill-opacity:1;fill-rule:evenodd;stroke:none;stroke-width:1pt;stroke-linecap:butt;stroke-linejoin:miter;stroke-opacity:1"
             d="m 172.06264,241.88603 c 0,0 -1.25972,-35.43001 -4.33901,-41.51614 -3.0793,-6.08614 3.21926,-3.91253 4.61894,0.65208 1.39968,4.56459 10.63757,39.55988 9.51782,41.08142 -1.11974,1.52154 -6.9984,4.5646 -9.79775,-0.21736 z"
             id="path997-5-1-4-6-0" />
          <path
             inkscape:connector-curvature="0"
             style="font-style:normal;font-variant:normal;font-weight:normal;font-stretch:normal;font-size:medium;line-height:125%;font-family:Banana;-inkscape-font-specification:'Banana, Normal';text-align:start;letter-spacing:0px;word-spacing:0px;writing-mode:lr-tb;text-anchor:start;fill:url(#linearGradient4825);fill-opacity:1;fill-rule:evenodd;stroke:none;stroke-width:1pt;stroke-linecap:butt;stroke-linejoin:miter;stroke-opacity:1"
             d="m 167.02379,197.54418 c 0,0 -9.51783,-1.30418 -10.21767,12.38963 -0.69984,13.69381 -0.55987,9.78129 -0.55987,9.78129 0,0 10.49759,-21.51885 13.15699,-18.04105 2.6594,3.47779 -2.51942,-3.91251 -2.37945,-4.12987 z"
             id="path998-9-8-3-06-8" />
          <path
             inkscape:connector-curvature="0"
             style="font-style:normal;font-variant:normal;font-weight:normal;font-stretch:normal;font-size:medium;line-height:125%;font-family:Banana;-inkscape-font-specification:'Banana, Normal';text-align:start;letter-spacing:0px;word-spacing:0px;writing-mode:lr-tb;text-anchor:start;fill:url(#linearGradient4827);fill-opacity:1;fill-rule:evenodd;stroke:none;stroke-width:1pt;stroke-linecap:butt;stroke-linejoin:miter;stroke-opacity:1"
             d="m 168.22605,195.01683 c 0,0 -7.16359,-9.81886 -12.95848,0.55984 -5.79489,10.37869 -4.1875,7.35808 -4.1875,7.35808 0,0 16.6715,-7.6509 17.48367,-2.40112 0.81217,5.24978 -0.53341,-5.47077 -0.33769,-5.5168 z"
             id="path999-4-8-7-26-1" />
          <path
             inkscape:connector-curvature="0"
             style="font-style:normal;font-variant:normal;font-weight:normal;font-stretch:normal;font-size:medium;line-height:125%;font-family:Banana;-inkscape-font-specification:'Banana, Normal';text-align:start;letter-spacing:0px;word-spacing:0px;writing-mode:lr-tb;text-anchor:start;fill:url(#linearGradient4829);fill-opacity:1;fill-rule:evenodd;stroke:none;stroke-width:1pt;stroke-linecap:butt;stroke-linejoin:miter;stroke-opacity:1"
             d="m 170.3719,195.66892 c 0,0 7.1636,-9.81888 12.95849,0.55983 5.79489,10.3787 4.18749,7.35809 4.18749,7.35809 0,0 -16.67151,-7.65091 -17.48367,-2.40112 -0.81217,5.24978 0.53341,-5.47078 0.33769,-5.5168 z"
             id="path1000-8-7-3-99-3" />
          <path
             inkscape:connector-curvature="0"
             style="font-style:normal;font-variant:normal;font-weight:normal;font-stretch:normal;font-size:medium;line-height:125%;font-family:Banana;-inkscape-font-specification:'Banana, Normal';text-align:start;letter-spacing:0px;word-spacing:0px;writing-mode:lr-tb;text-anchor:start;fill:url(#linearGradient4831);fill-opacity:1;fill-rule:evenodd;stroke:none;stroke-width:1pt;stroke-linecap:butt;stroke-linejoin:miter;stroke-opacity:1"
             d="m 168.29598,195.43294 c 0,0 3.08626,-14.04269 11.43233,-9.49127 8.34606,4.55142 5.98576,3.16584 5.98576,3.16584 0,0 -16.92079,6.19197 -15.95002,11.37641 0.97077,5.18442 -1.28341,-5.16171 -1.46807,-5.05098 z"
             id="path1001-4-0-4-2-1" />
          <path
             inkscape:connector-curvature="0"
             style="font-style:normal;font-variant:normal;font-weight:normal;font-stretch:normal;font-size:medium;line-height:125%;font-family:Banana;-inkscape-font-specification:'Banana, Normal';text-align:start;letter-spacing:0px;word-spacing:0px;writing-mode:lr-tb;text-anchor:start;fill:url(#linearGradient4834);fill-opacity:1;fill-rule:evenodd;stroke:none;stroke-width:1pt;stroke-linecap:butt;stroke-linejoin:miter;stroke-opacity:1"
             d="m 166.50943,195.46998 c 0,0 -0.89179,-14.77328 7.92225,-15.93489 8.81402,-1.16162 6.2954,-0.92288 6.2954,-0.92288 0,0 -13.79928,16.41948 -11.54529,20.53031 2.25398,4.11081 -2.53315,-3.89108 -2.67236,-3.67254 z"
             id="path1002-6-5-7-9-1" />
          <path
             inkscape:connector-curvature="0"
             style="font-style:normal;font-variant:normal;font-weight:normal;font-stretch:normal;font-size:medium;line-height:125%;font-family:Banana;-inkscape-font-specification:'Banana, Normal';text-align:start;letter-spacing:0px;word-spacing:0px;writing-mode:lr-tb;text-anchor:start;fill:url(#linearGradient4836);fill-opacity:1;fill-rule:evenodd;stroke:none;stroke-width:1pt;stroke-linecap:butt;stroke-linejoin:miter;stroke-opacity:1"
             d="m 168.4378,196.55679 c 0,0 0.89179,-14.77328 -7.92224,-15.93489 -8.81403,-1.16161 -6.29541,-0.92288 -6.29541,-0.92288 0,0 13.79928,16.41949 11.5453,20.53031 -2.25399,4.1108 2.53315,-3.89109 2.67235,-3.67254 z"
             id="path1003-9-2-2-6-0" />
          <path
             inkscape:connector-curvature="0"
             style="font-style:normal;font-variant:normal;font-weight:normal;font-stretch:normal;font-size:medium;line-height:125%;font-family:Banana;-inkscape-font-specification:'Banana, Normal';text-align:start;letter-spacing:0px;word-spacing:0px;writing-mode:lr-tb;text-anchor:start;fill:#ffd056;fill-opacity:1;fill-rule:evenodd;stroke:none;stroke-width:1pt;stroke-linecap:butt;stroke-linejoin:miter;stroke-opacity:1"
             d="m 178.64735,233.48009 c 0,0 -6.75832,5.24763 -7.2652,5.51001 -0.50687,0.26239 7.09623,-0.78713 7.2652,-5.51001 z"
             id="path1004-2-7-1-5-3" />
          <path
             inkscape:connector-curvature="0"
             style="font-style:normal;font-variant:normal;font-weight:normal;font-stretch:normal;font-size:medium;line-height:125%;font-family:Banana;-inkscape-font-specification:'Banana, Normal';text-align:start;letter-spacing:0px;word-spacing:0px;writing-mode:lr-tb;text-anchor:start;fill:#ffd056;fill-opacity:1;fill-rule:evenodd;stroke:none;stroke-width:1pt;stroke-linecap:butt;stroke-linejoin:miter;stroke-opacity:1"
             d="m 178.30943,233.48009 -6.4204,-2.36143 c 0,0 5.91352,3.93573 6.4204,2.36143 z"
             id="path1005-9-9-7-53-4" />
          <path
             inkscape:connector-curvature="0"
             style="font-style:normal;font-variant:normal;font-weight:normal;font-stretch:normal;font-size:medium;line-height:125%;font-family:Banana;-inkscape-font-specification:'Banana, Normal';text-align:start;letter-spacing:0px;word-spacing:0px;writing-mode:lr-tb;text-anchor:start;fill:#ffd056;fill-opacity:1;fill-rule:evenodd;stroke:none;stroke-width:1pt;stroke-linecap:butt;stroke-linejoin:miter;stroke-opacity:1"
             d="m 176.61985,221.67292 -4.22395,6.82192 c 0,0 4.39291,-3.93572 4.22395,-6.82192 z"
             id="path1006-0-1-9-8-0" />
          <path
             inkscape:connector-curvature="0"
             style="font-style:normal;font-variant:normal;font-weight:normal;font-stretch:normal;font-size:medium;line-height:125%;font-family:Banana;-inkscape-font-specification:'Banana, Normal';text-align:start;letter-spacing:0px;word-spacing:0px;writing-mode:lr-tb;text-anchor:start;fill:#ffd056;fill-opacity:1;fill-rule:evenodd;stroke:none;stroke-width:1pt;stroke-linecap:butt;stroke-linejoin:miter;stroke-opacity:1"
             d="m 174.93027,219.31148 -3.54812,-0.78715 c 0,0 3.37916,-0.52476 3.54812,0.78715 z"
             id="path1007-3-9-5-6-3" />
          <path
             inkscape:connector-curvature="0"
             style="font-style:normal;font-variant:normal;font-weight:normal;font-stretch:normal;font-size:medium;line-height:125%;font-family:Banana;-inkscape-font-specification:'Banana, Normal';text-align:start;letter-spacing:0px;word-spacing:0px;writing-mode:lr-tb;text-anchor:start;fill:none;fill-opacity:1;fill-rule:evenodd;stroke:none;stroke-width:1pt;stroke-linecap:butt;stroke-linejoin:miter;stroke-opacity:1"
             d="m 173.74756,209.86574 -2.36541,4.98525 c 0,0 2.53437,-3.41096 2.36541,-4.98525 z"
             id="path1008-0-6-6-7-9" />
        </g>
        <path
           inkscape:connector-curvature="0"
           id="path3373-3-1-8-3-1"
           d="m -162.94612,214.88256 c -6.20669,0.54268 -5.66669,8.9407 -4.06055,13.2754 0.91376,2.36011 5.44905,2.65204 5.94141,3.73048 -5.89878,0.3526 -8.58618,6.87753 -5.91798,11.64064 4.14077,4.30703 11.30613,0.69741 16.52346,1.8789 4.18508,1.11703 10.9987,-0.14611 9.91994,-5.83399 -0.7201,-5.73661 -9.14043,-3.71853 -11.04494,0.0937 -1.84714,0.58528 -9.21705,1.29466 -6.44532,-2.41016 3.23312,-2.49857 11.7358,-0.36002 11.0801,-6.33593 -1.785,-5.60762 -12.25045,-1.43657 -12.07229,-7.92775 1.21351,-4.09284 8.32723,-2.71698 10.46486,0.12306 3.48601,3.54078 10.03771,-0.24846 7.68361,-5.00195 -2.82944,-6.12864 -11.21178,-2.06983 -16.3262,-3.23439 -1.91536,0.002 -3.83078,-0.003 -5.7461,0.002 z"
           style="font-style:normal;font-variant:normal;font-weight:normal;font-stretch:normal;font-size:40px;line-height:125%;font-family:Banana;-inkscape-font-specification:'Banana, Normal';text-align:start;letter-spacing:0px;word-spacing:0px;writing-mode:lr-tb;text-anchor:start;fill:url(#linearGradient4838);fill-opacity:1;stroke:none;stroke-width:4.68831539;stroke-linecap:butt;stroke-linejoin:round;stroke-miterlimit:4;stroke-dasharray:none;stroke-opacity:1;filter:url(#filter7448-2)" />
        <path
           inkscape:connector-curvature="0"
           id="path3375-1-7-9-60-9"
           d="m -135.48058,215.04034 c -5.03066,1.15616 -3.02236,8.09495 -2.8418,11.88869 0.52104,3.06111 5.54949,3.6378 6.41016,4.72265 -5.45509,0.51277 -8.17078,5.72286 -6.50001,10.65821 1.22276,5.16338 11.01434,3.38467 9.10548,-2.31836 -2.03234,-5.83427 8.92656,-6.27612 7.39326,-0.41607 -2.43791,6.64299 9.60718,8.00999 9.28841,1.42193 1.3891,-4.87577 -2.28762,-8.85693 -7.01173,-9.49805 5.36403,-0.41325 8.36599,-5.32512 7.01563,-10.32423 1.89831,-5.34136 -4.70123,-8.194 -8.40235,-5.11328 -2.83738,3.14773 1.79929,11.08773 -4.57227,10.8711 -7.53132,0.41314 0.13318,-11.54947 -7.09962,-11.86915 -0.92799,0.003 -1.85766,-0.0529 -2.78516,-0.0234 z"
           style="font-style:normal;font-variant:normal;font-weight:normal;font-stretch:normal;font-size:40px;line-height:125%;font-family:Banana;-inkscape-font-specification:'Banana, Normal';text-align:start;letter-spacing:0px;word-spacing:0px;writing-mode:lr-tb;text-anchor:start;fill:url(#linearGradient4840);fill-opacity:1;stroke:none;stroke-width:4.68831539;stroke-linecap:butt;stroke-linejoin:round;stroke-miterlimit:4;stroke-dasharray:none;stroke-opacity:1;filter:url(#filter7448-2)" />
        <path
           inkscape:connector-curvature="0"
           id="path3377-0-9-5-26-6"
           d="m -99.53329,213.97199 c -5.37957,-0.13832 -12.60534,3.30472 -10.40429,9.9121 0.8766,6.34675 -1.65091,13.58507 1.02343,19.49416 4.7051,4.1777 12.04351,0.62443 17.67969,1.79493 4.64519,1.35307 8.96415,-2.91425 7.46875,-7.60938 -0.72352,-6.45887 1.30755,-13.57991 -0.72656,-19.74025 -3.75726,-4.0941 -9.9206,-3.99199 -15.04102,-3.85156 z m 4.0918,5.61328 c 5.71119,1.61562 1.68902,9.20936 2.87109,13.34962 1.54072,4.02428 -1.26532,8.61421 -5.79297,7.08788 -5.58519,-1.7421 -1.57952,-9.35367 -2.77148,-13.48828 -1.27621,-4.23915 0.98237,-8.11358 5.69336,-6.94922 z"
           style="font-style:normal;font-variant:normal;font-weight:normal;font-stretch:normal;font-size:40px;line-height:125%;font-family:Banana;-inkscape-font-specification:'Banana, Normal';text-align:start;letter-spacing:0px;word-spacing:0px;writing-mode:lr-tb;text-anchor:start;fill:url(#linearGradient4842);fill-opacity:1;stroke:none;stroke-width:4.68831539;stroke-linecap:butt;stroke-linejoin:round;stroke-miterlimit:4;stroke-dasharray:none;stroke-opacity:1;filter:url(#filter7448-2)" />
        <g
           transform="matrix(1.0734815,0,0,1.6327238,-253.51409,137.06382)"
           id="text3356-1-3-5-93-9"
           style="font-style:normal;font-variant:normal;font-weight:normal;font-stretch:normal;font-size:40px;line-height:125%;font-family:Sans;-inkscape-font-specification:'Banana, Normal';text-align:start;letter-spacing:0px;word-spacing:0px;writing-mode:lr-tb;text-anchor:start;fill:url(#linearGradient4846);fill-opacity:1;stroke:none;stroke-width:1px;stroke-linecap:butt;stroke-linejoin:miter;stroke-opacity:1;filter:url(#filter7448-2)">
          <path
             inkscape:connector-curvature="0"
             id="path3370-8-6-2-0-3"
             style="font-style:normal;font-variant:normal;font-weight:normal;font-stretch:normal;font-size:40px;line-height:125%;font-family:Banana;-inkscape-font-specification:'Banana, Normal';text-align:start;writing-mode:lr-tb;text-anchor:start;fill:url(#linearGradient5445);fill-opacity:1"
             d="m 152.11273,34.93282 25.6,0 q 2.12,0 2.12,1.6 0,1.48 -2,1.48 l -4.04,0.04 q -2.08,0.24 -3.6,1.92 -1.36,1.56 -1.36,3.04 l 0,18.84 q 0,2.56 -0.64,3.24 -0.64,0.68 -2.8,0.68 -2.36,0 -3.08,-0.64 -0.72,-0.68 -0.72,-3.16 l 0,-19.04 q 0,-1.96 -1.36,-3.52 -1.52,-1.76 -4,-1.84 -1.28,-0.04 -4.12,-0.04 -1.6,0 -1.56,-1.48 0.04,-1.12 1.56,-1.12 z" />
        </g>
        <path
           d="m -16.77312,194.68725 6.48383,0 q 2.70517,0 6.44087,1.56741 4.89508,2.08989 4.89508,5.15942 0,4.31039 -3.64984,4.31039 -2.23284,0 -3.82158,-2.22051 -1.28819,-2.08988 -2.57637,-4.17977 -1.67462,-2.22051 -4.12217,-2.22051 l -3.64982,0 q -1.67463,0 -3.86455,2.02458 -2.57634,2.35111 -2.57634,5.35533 l 0,29.51966 q 0,2.93889 2.14695,5.55126 2.49049,3.06952 6.35501,3.06952 3.47808,0 5.53918,-2.54705 1.41698,-2.35112 2.83399,-4.76756 1.63169,-2.54704 4.12217,-2.54704 3.26337,0 3.26337,4.89816 0,2.08988 -1.07347,4.24509 -1.24525,2.54705 -3.00576,2.54705 l -23.01543,0 q -1.11642,0 -2.23284,-1.17557 -1.41701,-1.4368 -1.41701,-3.7226 l 0,-38.79352 q 0,-2.0899 3.34927,-3.91854 3.8216,-2.1552 9.57546,-2.1552 z"
           style="font-style:normal;font-variant:normal;font-weight:normal;font-stretch:normal;font-size:40px;line-height:125%;font-family:Banana;-inkscape-font-specification:'Banana, Normal';text-align:start;letter-spacing:0px;word-spacing:0px;writing-mode:lr-tb;text-anchor:start;fill:url(#linearGradient4848);fill-opacity:1;stroke:none;stroke-width:1px;stroke-linecap:butt;stroke-linejoin:miter;stroke-opacity:1;filter:url(#filter7448-2)"
           id="path3365-1-2-1-8-3"
           inkscape:connector-curvature="0" />
        <path
           d="m 34.69293,238.90142 q 0,2.48174 -0.85879,4.04915 -0.85877,1.50211 -2.36164,1.50211 l -25.07653,0 q -1.15936,0 -2.0611,-1.17557 -1.03054,-1.30617 -1.03054,-3.13482 l 0,-6.13904 q 0,-3.20015 2.57637,-5.0941 2.4046,-1.30618 4.80918,-2.61236 2.57637,-1.56742 2.57637,-3.98385 0,-2.15519 -2.57637,-3.46138 -4.76624,-2.48173 -4.80918,-2.48173 -2.57637,-1.95927 -2.57637,-5.68188 l 0,-9.86165 q 0,-2.93891 1.11643,-4.50633 1.11642,-1.63272 2.79104,-1.63272 l 23.8313,0 q 1.67462,0 2.74812,2.1552 0.90171,1.82864 0.90171,3.98385 0,4.31039 -3.22043,4.31039 -1.76051,0 -3.34928,-1.76334 -1.37404,-1.63273 -2.79105,-3.26545 -1.80344,-1.76335 -3.99335,-1.76335 l -5.66797,0 q -2.91987,0 -4.50862,2.61235 -1.54582,2.54706 -1.54582,6.59622 0,5.94311 4.29393,8.42485 0.68703,0.39186 7.98669,2.61236 4.29394,1.30617 4.29394,4.3757 0,1.82865 -4.16511,2.8736 -6.05444,1.43678 -7.81496,2.41643 -4.16509,2.35111 -4.16509,7.57584 0,2.35111 1.33111,4.04915 1.417,1.89396 3.73572,1.89396 l 3.22044,0 q 4.8092,0 6.65559,-1.89396 0.98759,-1.76334 2.01814,-3.59199 1.28817,-1.89396 4.68038,-1.89396 1.63168,0 2.18989,0.65309 0.81585,0.91432 0.81585,3.85323 z"
           style="font-style:normal;font-variant:normal;font-weight:normal;font-stretch:normal;font-size:40px;line-height:125%;font-family:Banana;-inkscape-font-specification:'Banana, Normal';text-align:start;letter-spacing:0px;word-spacing:0px;writing-mode:lr-tb;text-anchor:start;fill:url(#linearGradient4850);fill-opacity:1;stroke:none;stroke-width:1px;stroke-linecap:butt;stroke-linejoin:miter;stroke-opacity:1;filter:url(#filter7448-2)"
           id="path3367-7-1-5-7-8"
           inkscape:connector-curvature="0" />
      </g>
    </g>
  </g>
</svg>
