<?xml version="1.0" encoding="UTF-8" standalone="no"?>
<!-- Created with Inkscape (http://www.inkscape.org/) -->

<svg
   xmlns:dc="http://purl.org/dc/elements/1.1/"
   xmlns:cc="http://creativecommons.org/ns#"
   xmlns:rdf="http://www.w3.org/1999/02/22-rdf-syntax-ns#"
   xmlns:svg="http://www.w3.org/2000/svg"
   xmlns="http://www.w3.org/2000/svg"
   xmlns:sodipodi="http://sodipodi.sourceforge.net/DTD/sodipodi-0.dtd"
   xmlns:inkscape="http://www.inkscape.org/namespaces/inkscape"
   version="1.0"
   x="0.00000000"
   y="0.00000000"
   width="181"
   height="181"
   id="svg548"
   sodipodi:version="0.32"
   sodipodi:docname="go-previous_coin.svg"
   inkscape:version="0.91 r13725"
   inkscape:output_extension="org.inkscape.output.svg.inkscape">
  <metadata
     id="metadata15">
    <rdf:RDF>
      <cc:Work
         rdf:about="">
        <dc:format>image/svg+xml</dc:format>
        <dc:type
           rdf:resource="http://purl.org/dc/dcmitype/StillImage" />
        <dc:title></dc:title>
      </cc:Work>
    </rdf:RDF>
  </metadata>
  <sodipodi:namedview
     id="base"
     inkscape:zoom="2.4140625"
     inkscape:cx="36.324322"
     inkscape:cy="84.21855"
     inkscape:window-width="1881"
     inkscape:window-height="1227"
     inkscape:window-x="0"
     inkscape:window-y="1"
     inkscape:current-layer="svg548"
     width="90px"
     height="90px"
     showgrid="false"
     inkscape:window-maximized="0"
     fit-margin-top="0"
     fit-margin-left="0"
     fit-margin-right="0"
     fit-margin-bottom="0" />
  <defs
     id="defs550">
    <filter
       style="color-interpolation-filters:sRGB"
       inkscape:label="Greyscale"
       id="filter4195">
      <feColorMatrix
         values="0.21 0.72 0.072 0 0 0.21 0.72 0.072 0 0 0.21 0.72 0.072 0 0 0 0 0 1 0 "
         id="feColorMatrix4197"
         result="fbSourceGraphic" />
      <feColorMatrix
         result="fbSourceGraphicAlpha"
         in="fbSourceGraphic"
         values="0 0 0 -1 0 0 0 0 -1 0 0 0 0 -1 0 0 0 0 1 0"
         id="feColorMatrix4199" />
      <feColorMatrix
         id="feColorMatrix4201"
         values="0.21 0.72 0.072 0 0 0.21 0.72 0.072 0 0 0.21 0.72 0.072 0 0 0 0 0 1 0 "
         in="fbSourceGraphic" />
    </filter>
  </defs>
  <path
     style="opacity:0.66000001;fill:#6e6e6e;fill-opacity:1;fill-rule:evenodd;stroke:none;stroke-width:1.04151666px;stroke-linecap:butt;stroke-linejoin:miter;stroke-opacity:1"
     d="m 0.66686003,1.076942 0,181.193308 180.97261997,0 z"
     id="path4213"
     inkscape:connector-curvature="0" />
  <g
     id="g572"
     transform="matrix(1.487244,2.041533,-2.041533,1.487244,78.369255,71.038786)"
     style="opacity:0.66000001;filter:url(#filter4195)">
    <g
       transform="matrix(1.008714,0,0,1.008714,-45.46822,-0.252175)"
       style="font-size:12px"
       id="g584">
      <path
         d="m 51.9665,36.0486 c 1.9937,0.9968 13.5059,-1.2773 13.7907,-3.4133 1.1166,-3.5514 -1.9125,-4.8576 -1.6932,-6.3995 0.4272,-1.4241 5.3257,-6.9264 4.7718,-8.6553 -1.5935,-3.1443 -5.8656,-7.0137 -8.8764,-5.1424 -2.5949,2.3432 -4.3287,8.277 -5.8952,7.7074 -1.5665,-0.5696 -2.9521,-0.0821 -3.3793,0.9147 -0.4272,0.9968 -0.9968,14.2763 1.2816,14.9884 z"
         transform="matrix(1.369638,0,0,1.207417,-21.85404,-4.997635)"
         style="fill:#0d3c07;fill-rule:evenodd;stroke-width:1pt"
         id="path582"
         inkscape:connector-curvature="0" />
      <path
         d="m 51.5506,35.4589 c 1.9937,0.9968 12.6741,-0.5697 12.9589,-2.7057 0.2848,-2.1361 -2.8481,-3.5602 -2.4209,-4.9842 0.4272,-1.4241 7.4051,-10.1108 6.1234,-11.25 -1.2816,-1.1393 -5.5538,-5.1266 -6.693,-3.845 -1.1393,1.2817 -6.4082,11.1076 -7.9747,10.538 -1.5665,-0.5696 -2.8481,-1.8512 -3.2753,-0.8544 -0.4272,0.9968 -0.9968,12.3892 1.2816,13.1013 z"
         style="fill:#2aaf18;fill-rule:evenodd;stroke-width:1pt"
         id="path581"
         inkscape:connector-curvature="0" />
      <path
         d="m 67.6424,15.9494 c 0,0 1.4241,0.8544 0.4272,2.5633 -0.9968,1.7088 -6.5506,9.2563 -6.1234,9.8259 1.5664,1.2816 3.4177,4.4145 2.4209,5.269 -1.7088,1.5664 -11.5348,2.7057 -12.6741,2.1361 -1.1392,-0.5697 8.4019,-2.2785 8.5443,-4.6994 0.1424,-2.4209 -2.4208,-3.4177 -1.5664,-4.8418 0.8544,-1.424 6.693,-11.25 7.5475,-10.9652 0.8544,0.2848 1.5664,1.2817 1.424,0.7121 z"
         style="fill:#208c11;fill-rule:evenodd;stroke-width:1pt"
         id="path583"
         inkscape:connector-curvature="0" />
    </g>
    <path
       d="m 16.9462,4.6519 c 0,0 -7.68987,9.5411 -7.40506,10.3956 0.28481,0.8544 7.83226,-6.55067 7.40506,-10.3956 z"
       transform="matrix(1.008714,0,0,1.008714,0.929487,8.797523)"
       style="font-size:12px;fill:#ffffff;fill-rule:evenodd;stroke-width:1pt"
       id="path588"
       inkscape:connector-curvature="0" />
    <path
       d="m 5.41139,24.019 c 0,0 -0.99683,-6.5506 -0.56962,-7.6899 0.42722,-1.1392 1.85127,0.712 1.85127,0.712 0,0 -1.70886,6.1235 -1.28165,6.9779 z"
       transform="matrix(1.008714,0,0,1.008714,0.929487,8.797523)"
       style="font-size:12px;fill:#ffffff;fill-rule:evenodd;stroke-width:1pt"
       id="path589"
       inkscape:connector-curvature="0" />
  </g>
</svg>
