<?xml version="1.0" encoding="UTF-8" standalone="no"?>
<!-- Created with Inkscape (http://www.inkscape.org/) -->

<svg
   xmlns:dc="http://purl.org/dc/elements/1.1/"
   xmlns:cc="http://creativecommons.org/ns#"
   xmlns:rdf="http://www.w3.org/1999/02/22-rdf-syntax-ns#"
   xmlns:svg="http://www.w3.org/2000/svg"
   xmlns="http://www.w3.org/2000/svg"
   xmlns:xlink="http://www.w3.org/1999/xlink"
   xmlns:sodipodi="http://sodipodi.sourceforge.net/DTD/sodipodi-0.dtd"
   xmlns:inkscape="http://www.inkscape.org/namespaces/inkscape"
   width="20mm"
   height="20mm"
   viewBox="0 0 70.866142 70.866141"
   id="svg2"
   version="1.1"
   inkscape:version="0.91 r13725"
   sodipodi:docname="audio.svg">
  <defs
     id="defs4">
    <marker
       inkscape:stockid="Arrow2Mend"
       orient="auto"
       refY="0.0"
       refX="0.0"
       id="Arrow2Mend"
       style="overflow:visible;"
       inkscape:isstock="true">
      <path
         id="path4235"
         style="fill-rule:evenodd;stroke-width:0.625;stroke-linejoin:round;stroke:#000000;stroke-opacity:1;fill:#000000;fill-opacity:1"
         d="M 8.7185878,4.0337352 L -2.2072895,0.016013256 L 8.7185884,-4.0017078 C 6.9730900,-1.6296469 6.9831476,1.6157441 8.7185878,4.0337352 z "
         transform="scale(0.6) rotate(180) translate(0,0)" />
    </marker>
    <marker
       inkscape:stockid="Arrow1Mend"
       orient="auto"
       refY="0.0"
       refX="0.0"
       id="Arrow1Mend"
       style="overflow:visible;"
       inkscape:isstock="true">
      <path
         id="path4217"
         d="M 0.0,0.0 L 5.0,-5.0 L -12.5,0.0 L 5.0,5.0 L 0.0,0.0 z "
         style="fill-rule:evenodd;stroke:#000000;stroke-width:1pt;stroke-opacity:1;fill:#000000;fill-opacity:1"
         transform="scale(0.4) rotate(180) translate(10,0)" />
    </marker>
    <marker
       inkscape:stockid="Arrow1Lend"
       orient="auto"
       refY="0.0"
       refX="0.0"
       id="Arrow1Lend"
       style="overflow:visible;"
       inkscape:isstock="true">
      <path
         id="path4211"
         d="M 0.0,0.0 L 5.0,-5.0 L -12.5,0.0 L 5.0,5.0 L 0.0,0.0 z "
         style="fill-rule:evenodd;stroke:#000000;stroke-width:1pt;stroke-opacity:1;fill:#000000;fill-opacity:1"
         transform="scale(0.8) rotate(180) translate(12.5,0)" />
    </marker>
    <linearGradient
       id="linearGradient3016"
       inkscape:collect="always">
      <stop
         id="stop3018"
         offset="0"
         style="stop-color:#949494;stop-opacity:1;" />
      <stop
         id="stop3020"
         offset="1"
         style="stop-color:#949494;stop-opacity:0;" />
    </linearGradient>
    <linearGradient
       inkscape:collect="always"
       id="linearGradient10765">
      <stop
         style="stop-color:#989898;stop-opacity:1;"
         offset="0"
         id="stop10767" />
      <stop
         style="stop-color:#989898;stop-opacity:0;"
         offset="1"
         id="stop10769" />
    </linearGradient>
    <linearGradient
       y2="104.58656"
       x2="103.28809"
       y1="27.309885"
       x1="57.073624"
       gradientTransform="translate(-13.32707,-18.22025)"
       gradientUnits="userSpaceOnUse"
       id="linearGradient1417"
       xlink:href="#linearGradient3016"
       inkscape:collect="always" />
    <linearGradient
       y2="104.58656"
       x2="103.28809"
       y1="27.309885"
       x1="57.073624"
       gradientTransform="matrix(0.998424,0.05612358,-0.05612358,0.998424,-11.4001,-7.493561)"
       gradientUnits="userSpaceOnUse"
       id="linearGradient1419"
       xlink:href="#linearGradient3016"
       inkscape:collect="always" />
    <radialGradient
       r="7.3950381"
       fy="98.385017"
       fx="16.073729"
       cy="98.385017"
       cx="16.073729"
       gradientTransform="matrix(2.277654,1.814482,-1.554691,2.313904,132.3066,-174.3013)"
       gradientUnits="userSpaceOnUse"
       id="radialGradient1421"
       xlink:href="#linearGradient10765"
       inkscape:collect="always" />
    <linearGradient
       y2="138.12024"
       x2="46.517174"
       y1="14.790077"
       x1="46.517174"
       gradientTransform="translate(-1.35669,-6.4121)"
       gradientUnits="userSpaceOnUse"
       id="linearGradient1423"
       xlink:href="#linearGradient10765"
       inkscape:collect="always" />
  </defs>
  <sodipodi:namedview
     id="base"
     pagecolor="#ffffff"
     bordercolor="#666666"
     borderopacity="1.0"
     inkscape:pageopacity="0.0"
     inkscape:pageshadow="2"
     inkscape:zoom="11.2"
     inkscape:cx="17.208148"
     inkscape:cy="46.748538"
     inkscape:document-units="px"
     inkscape:current-layer="layer1"
     showgrid="false"
     inkscape:window-width="2560"
     inkscape:window-height="1422"
     inkscape:window-x="0"
     inkscape:window-y="0"
     inkscape:window-maximized="1" />
  <metadata
     id="metadata7">
    <rdf:RDF>
      <cc:Work
         rdf:about="">
        <dc:format>image/svg+xml</dc:format>
        <dc:type
           rdf:resource="http://purl.org/dc/dcmitype/StillImage" />
        <dc:title></dc:title>
      </cc:Work>
    </rdf:RDF>
  </metadata>
  <g
     inkscape:label="Calque 1"
     inkscape:groupmode="layer"
     id="layer1"
     transform="translate(0,-981.49606)">
    <rect
       style="opacity:1;fill:#666666;fill-opacity:1;stroke:none;stroke-width:2.27945733;stroke-linejoin:round;stroke-miterlimit:4;stroke-dasharray:none;stroke-dashoffset:0;stroke-opacity:1"
       id="rect4291"
       width="34.83659"
       height="27.493284"
       x="-52.881966"
       y="996.57062"
       transform="matrix(0.99997106,0.00760757,0,1,0,0)" />
    <g
       id="layer1-4"
       inkscape:label="Calque 1"
       transform="matrix(0.73341359,0,0,0.73341359,10.331795,982.36497)">
      <path
         id="path1316"
         d=""
         style="fill:#000000"
         inkscape:connector-curvature="0" />
      <g
         transform="translate(-9.749999,-9.2500005)"
         id="g1408">
        <path
           style="fill:#000000"
           d="m 44.23543,9.8735 c -0.39833,0.040297 -0.738762,0.191804 -1,0.46875 2.937678,6.760901 4.059739,16.223526 3.90625,21.46875 -0.287347,9.735232 -1.282099,16.833767 -2.71875,25.0625 -1.401695,8.02852 -4.190468,15.294782 -6.75,22.8125 -1.843335,5.99362 -5.729404,0.008 -8.5,-1.21875 -3.993172,-1.768145 -7.508052,-1.889724 -11.375,0 -3.866949,1.88973 -6.030685,4.67658 -7,9.0625 -0.947517,4.28728 1.244002,9.59833 4.8125,12.5 3.466002,2.81833 8.592618,3.19681 12.75,1.875 4.103098,-1.42098 7.8032,-5.29276 9.34375,-9.3125 0.788739,-1.86945 1.253501,-2.69673 2.1875,-5.65625 0.933997,-2.95952 2.180362,-7.296593 3.21875,-11 1.911025,-6.815662 4.562875,-13.026129 6.21875,-28.375 0.379978,-3.09127 1.150299,-11.244506 1.25,-18.53125 0.01097,-0.801875 0.225084,-0.821873 0.34375,-0.84375 0.698725,-0.128814 2.30919,1.071964 4.625,2.59375 2.315828,1.521787 5.50569,3.556073 7.0625,4.5 7.644398,4.635013 11.69975,10.651477 12.0625,17.875 0.253388,5.045678 -0.66705,8.95897 -3.46875,15 -1.057632,2.280503 -1.18227,2.79723 -0.8125,3.03125 0.703698,0.445303 0.81696,0.37539 1.78125,-1.03125 3.010518,-4.391487 4.76702,-10.957718 4.75,-17.71875 -0.01059,-4.209862 -0.607302,-6.78038 -1.75,-9.4375 -1.585022,-3.685657 -5.34437,-8.647044 -10.21875,-13.78125 -2.600142,-2.73876 -5.13229,-5.415428 -5.625,-5.9375 C 55.865108,19.609297 51.046285,14.63067 50.152625,11.368424 49.977919,10.730666 45.430421,9.75261 44.23543,9.8735 Z"
           id="path1318"
           sodipodi:nodetypes="cccscssssccsscsssssssssssssc"
           inkscape:connector-curvature="0" />
        <path
           style="fill:url(#linearGradient1417);fill-opacity:1"
           d="m 52.287777,16.184731 c 0.953894,9.295971 6.504726,15.648507 8.791403,17.126269 0.670446,0.427572 1.495882,0.988883 1.875,1.21875 7.793607,4.725482 12.061421,11.011052 12.4375,18.5 0.25907,5.158761 -0.734511,9.246035 -3.5625,15.34375 -0.410581,0.885311 -0.550861,1.302907 -0.6875,1.6875 0.131787,-0.162705 0.126873,-0.121135 0.34375,-0.4375 2.887236,-4.211652 4.610431,-10.654688 4.59375,-17.28125 -0.01044,-4.151854 -0.453955,-6.601001 -1.65625,-9.09375 -0.136018,-0.282003 -0.818255,-1.564774 -1.46875,-2.78125 -0.650495,-1.216476 -1.30051,-2.400274 -1.4375,-2.65625 -0.421489,-0.787553 -2.318533,-3.027746 -7.1875,-8.15625 -2.600752,-2.739405 -5.130143,-5.413153 -5.625,-5.9375 -2.190203,-2.320692 -5.040597,-5.054385 -6.416403,-7.532519 z"
           id="path3014"
           sodipodi:nodetypes="ccssscsssssssc"
           inkscape:connector-curvature="0" />
        <g
           id="g1404">
          <path
             sodipodi:nodetypes="csssssssssssss"
             id="path1357"
             d="m 49.753599,43.268621 c 0.05596,-0.799996 0.270851,-0.807946 0.390562,-0.823128 0.704858,-0.0894 2.245388,1.199875 4.472141,2.849234 2.226772,1.649361 5.297433,3.859468 6.798813,4.889281 7.372219,5.056739 11.083512,11.291322 11.04028,18.523819 -0.03019,5.051947 -1.168808,8.907414 -4.305137,14.781682 -1.183953,2.217551 -1.337397,2.726468 -0.981344,2.980872 0.677599,0.484095 0.794605,0.420649 1.836321,-0.929655 C 72.257476,81.325122 74.379728,74.86782 74.742188,68.116488 74.967887,63.912667 74.516385,61.31271 73.524613,58.595645 72.148943,54.82684 68.673968,49.662284 64.09542,44.262602 61.653087,41.382229 59.275152,38.567666 58.812519,38.018764 55.559907,34.15968 51.0281,28.91845 50.318928,25.611189 50.180296,24.964631 49.245098,50.538285 49.753599,43.268621 Z"
             style="fill:#000000"
             inkscape:connector-curvature="0" />
          <path
             sodipodi:nodetypes="ccssscsssssssc"
             id="path1363"
             d="m 52.180414,30.539738 c 0.430664,9.334857 5.616219,15.988913 7.816357,17.592683 0.645397,0.464526 1.438023,1.071279 1.803645,1.322061 7.516116,5.15544 11.424431,11.670629 11.379612,19.168881 -0.03087,5.165171 -1.252273,9.19024 -4.418032,15.119628 -0.459619,0.860873 -0.623115,1.269938 -0.781125,1.646256 0.140714,-0.155052 0.133469,-0.113824 0.367763,-0.417518 3.119062,-4.042973 5.201143,-10.379143 5.556396,-16.996197 0.222593,-4.145897 -0.08276,-6.616076 -1.143266,-9.172373 C 72.641785,58.513966 72.032624,57.194928 71.451422,55.94386 70.87022,54.692793 70.287674,53.47438 70.165266,53.211119 69.78864,52.401152 68.020318,50.058021 63.446851,44.664335 61.003945,41.783284 58.628602,38.971791 58.16395,38.420497 56.107447,35.980541 53.414964,33.091182 52.180414,30.539738 Z"
             style="fill:url(#linearGradient1419);fill-opacity:1"
             inkscape:connector-curvature="0" />
        </g>
        <path
           style="fill:url(#radialGradient1421);fill-opacity:1;stroke:none;stroke-width:2.5;stroke-linecap:round;stroke-linejoin:round;stroke-miterlimit:4;stroke-opacity:1"
           d="m 25.387558,92.79145 c -4.174233,3.75954 -9.835818,4.21185 -12.637467,1.00962 -2.80165,-3.20224 -1.687668,-8.85237 2.486565,-12.611914 4.174232,-3.759541 9.835817,-4.211848 12.637466,-1.009614 2.792028,3.191238 1.69893,8.811298 -2.445846,12.575088"
           id="path2279"
           inkscape:connector-curvature="0" />
        <path
           style="fill:url(#linearGradient1423);fill-opacity:1"
           d="m 45.143309,10.306646 c -0.294945,-0.02063 -0.566581,-0.0063 -0.9375,0.03125 -0.249144,0.0252 -0.379179,0.11756 -0.53125,0.21875 2.872088,6.825732 3.965637,16.048041 3.8125,21.28125 -0.288,9.757403 -1.280734,16.888447 -2.71875,25.125 -1.408205,8.065811 -4.102352,15.219536 -6.65625,22.71875 0.365659,-0.3503 1.318456,-2.047255 1.809637,-3.556536 2.542779,-7.813354 4.330633,-11.074012 6.721613,-26.037214 -3.94e-4,-0.01041 -3.94e-4,-0.02084 0,-0.03125 l 0.0625,-0.25 c 0.0016,-0.01041 -0.0016,-0.02084 0,-0.03125 2.304485,-14.636075 2.335345,-27.42461 -0.71875,-39.28125 -0.318831,-0.08182 -0.608773,-0.171066 -0.84375,-0.1875 z"
           id="path7829"
           sodipodi:nodetypes="csccscscccscc"
           inkscape:connector-curvature="0" />
      </g>
    </g>
  </g>
</svg>
